<svg id="Layer_2" data-name="Layer 2" xmlns="http://www.w3.org/2000/svg" width="60" height="60" viewBox="0 0 60 60">
  <g id="invisible_box" data-name="invisible box">
    <rect id="Rectangle_19" data-name="Rectangle 19" width="60" height="60" fill="none"/>
  </g>
  <g id="icons_Q2" data-name="icons Q2" transform="translate(2 4.2)">
    <path id="Path_5" data-name="Path 5" d="M55.455,4.721h-.636L39.545,8.891H38.273L21.727,4.2H20.455L3.909,8.63A2.465,2.465,0,0,0,2,11.106V52.673a2.576,2.576,0,0,0,2.545,2.606h.636l15.273-4.17h1.273L38.273,55.8h1.273l16.545-4.561A2.461,2.461,0,0,0,58,48.894V7.327A2.576,2.576,0,0,0,55.455,4.721ZM23.636,10.064l12.727,3.779V49.936L23.636,46.158ZM7.091,13.191l11.455-3.127V46.158L7.091,49.285ZM52.909,46.809,41.455,49.936V13.842l11.455-3.127Z" transform="translate(-2 -4.2)" fill="#eba300"/>
  </g>
</svg>
