<svg xmlns="http://www.w3.org/2000/svg" width="60" height="60" viewBox="0 0 60 60">
  <g id="Group_16" data-name="Group 16" transform="translate(-736 -1145)">
    <g id="Rectangle_20" data-name="Rectangle 20" transform="translate(736 1145)" fill="#fff" stroke="#707070" stroke-width="1" opacity="0">
      <rect width="60" height="60" stroke="none"/>
      <rect x="0.5" y="0.5" width="59" height="59" fill="none"/>
    </g>
    <path id="Icon_ionic-md-globe" data-name="Icon ionic-md-globe" d="M31.75,3.375A28.375,28.375,0,1,0,60.125,31.75,28.375,28.375,0,0,0,31.75,3.375ZM28.81,55.9A24.324,24.324,0,0,1,13.24,15.972a26.95,26.95,0,0,1,.275,3.3c-.224,3.246-.544,5.278,1.356,8.016a13.227,13.227,0,0,1,1.282,3.83c.352,1.208,1.76,1.841,2.731,2.586,1.959,1.5,3.833,3.247,5.91,4.569,1.371.872,2.227,1.306,1.826,2.979a10.571,10.571,0,0,1-1.109,3.373c-.212.366.8,2.717,1.139,3.055,1.023,1.023,2.038,1.961,3.153,2.882C31.531,51.988,29.635,53.843,28.81,55.9Zm20.138-6.948a24.148,24.148,0,0,1-12.626,6.7,10.089,10.089,0,0,1,2.987-4.006,10.162,10.162,0,0,0,2.686-3.322,23.077,23.077,0,0,1,1.852-3.167c.964-1.487-2.376-3.729-3.459-4.2a35.654,35.654,0,0,1-6.434-4.007c-1.542-1.085-4.673.567-6.414-.193-2.385-1.041-4.349-2.851-6.422-4.412-2.139-1.611-2.036-3.489-2.036-5.866,1.675.062,4.059-.464,5.171.884.351.425,1.558,2.325,2.366,1.65.66-.552-.489-2.762-.711-3.282-.683-1.6,1.556-2.221,2.7-3.305,1.5-1.414,4.7-3.631,4.449-4.645s-3.209-3.885-4.945-3.437c-.26.067-2.551,2.469-2.993,2.846q.018-1.176.035-2.351c.008-.495-.923-1-.88-1.322.109-.807,2.355-2.271,2.913-2.913C26.8,10.35,25.463,9.2,25.059,9.372c-.979.408-2.084.689-3.063,1.1a6.229,6.229,0,0,0-.09-.973A24.089,24.089,0,0,1,28.087,7.7l1.921.772,1.357,1.61,1.354,1.4,1.183.381,1.88-1.773L35.3,8.822V7.684A24.056,24.056,0,0,1,45.6,11.75c-.55.049-1.155.13-1.836.217a6.113,6.113,0,0,0-.95-.358c.891,1.916,1.82,3.8,2.764,5.695,1.009,2.019,3.246,4.185,3.639,6.316.463,2.512.142,4.794.4,7.75.244,2.846,3.209,6.08,3.209,6.08a6.425,6.425,0,0,0,2.508.3A24.172,24.172,0,0,1,48.948,48.948Z" transform="translate(734.625 1143.625)" fill="#eba300"/>
  </g>
</svg>
